M48
;Layer_Color=9474304
;FILE_FORMAT=4:4
METRIC,LZ
;TYPE=PLATED
T01F00S00C0.5000
T02F00S00C0.7112
T03F00S00C1.0000
%
T01
X0002413Y001778
X0004064
X0005715
X0010795Y0017907
X0012446
X0014097
X0018923Y001778
X0020574
X0022225
X0027432
X0029083
X0030734
X0035433
X0037084
X0038735
X0043942Y0017653
X0045593
X0047244
X005207
X0053721
X0055372
X0060706Y001778
X0062357
X0064008Y0017653
X0063984Y00252221
X0062333
X0060706Y0025273
X0055348Y00250951
X0053697
X005207Y0025146
X004722Y00250951
X0045569
X0043942Y0025146
Y0032512
X0045593
X004722Y00325881
X005207Y0032512
X0053721
X0055348Y00325881
X0060706Y0032639
X0062357
X0063984Y00327151
X0038711
X0037084Y0032639
X0035433
X003071Y00327151
X0029083Y0032639
X0027432
X0022201Y00327151
X0020574Y0032639
X0018923
X0014073Y00328421
X0012446Y0032766
X0010795
X0005691Y00327151
X0004064Y0032639
X0002413
Y0025273
X000404Y00252221
X0005691
X0010795Y00254
X0012422Y00253491
X0014073
X0018923Y0025273
X002055Y00252221
X0022201
X0027432Y0025273
X0029059Y00252221
X003071
X0035433Y0025273
X003706Y00252221
X0038711
T02
X0000889Y0040132
T03
X0002Y0005
X0005
X0011
X0014
M30
