%TF.GenerationSoftware,Altium Limited,Altium Designer,24.3.1 (35)*%
G04 Layer_Physical_Order=1*
G04 Layer_Color=255*
%FSLAX45Y45*%
%MOMM*%
%TF.SameCoordinates,A20972E9-028A-4597-9386-5314E3457622*%
%TF.FilePolarity,Positive*%
%TF.FileFunction,Copper,L1,Top,Signal*%
%TF.Part,Single*%
G01*
G75*
%TA.AperFunction,SMDPad,CuDef*%
%ADD10R,1.25000X0.80000*%
%TA.AperFunction,Conductor*%
%ADD11C,1.00000*%
%TA.AperFunction,SMDPad,CuDef*%
%ADD12R,1.10000X1.75000*%
%TA.AperFunction,ViaPad*%
%ADD13C,1.00000*%
%ADD14C,2.00000*%
%ADD15C,1.27000*%
D10*
X596884Y3811600D02*
D03*
Y4011600D02*
D03*
X406384Y3811600D02*
D03*
Y4011600D02*
D03*
X228584Y3811600D02*
D03*
Y4011600D02*
D03*
X2057384D02*
D03*
Y3811600D02*
D03*
X1244584Y4011600D02*
D03*
Y3811600D02*
D03*
X2235200Y4013200D02*
D03*
Y3813200D02*
D03*
X1422384Y4011600D02*
D03*
Y3811600D02*
D03*
X1066784Y4011600D02*
D03*
Y3811600D02*
D03*
X5194284Y4011600D02*
D03*
Y3811600D02*
D03*
X6235684Y4011600D02*
D03*
Y3811600D02*
D03*
X4559284Y4011600D02*
D03*
Y3811600D02*
D03*
X6400784Y4011600D02*
D03*
Y3811600D02*
D03*
X6057900Y4010000D02*
D03*
Y3810000D02*
D03*
X5372084Y4011600D02*
D03*
Y3811600D02*
D03*
X5549884Y4011600D02*
D03*
Y3811600D02*
D03*
X1879584Y4011600D02*
D03*
Y3811600D02*
D03*
X3886184Y4024300D02*
D03*
Y3824300D02*
D03*
X2908284Y4011600D02*
D03*
Y3811600D02*
D03*
X3086084Y4011600D02*
D03*
Y3811600D02*
D03*
X4737084Y4011600D02*
D03*
Y3811600D02*
D03*
X4381484Y4011600D02*
D03*
Y3811600D02*
D03*
X3708384Y4024300D02*
D03*
Y3824300D02*
D03*
X3530600Y4022700D02*
D03*
Y3822700D02*
D03*
X2730484Y4011600D02*
D03*
Y3811600D02*
D03*
D11*
X1078384Y1472084D02*
Y1624484D01*
X500000Y893700D02*
X1078384Y1472084D01*
X500000Y500000D02*
Y893700D01*
X6400784Y4011600D02*
X6451584D01*
X6235684D02*
X6400784D01*
X5549884D02*
X6235684D01*
X5372084D02*
X5549884D01*
X5194284D02*
X5372084D01*
X4737084D02*
X5194284D01*
X4559284D02*
X4737084D01*
X4381484D02*
X4559284D01*
X3086084D02*
X4381484D01*
X2908284D02*
X3086084D01*
X2730484D02*
X2908284D01*
X2057384D02*
X2730484D01*
X1879584D02*
X2057384D01*
X1422384D02*
X1879584D01*
X6398398Y3126602D02*
Y3271510D01*
Y2377302D02*
Y2522210D01*
X6400700Y1630600D02*
Y1765200D01*
X569098Y3106410D02*
Y3271510D01*
Y2357110D02*
Y2522210D01*
X1404600Y1625600D02*
X1409600Y1630600D01*
X1400800Y1621800D02*
X1404600Y1625600D01*
X1400800Y495300D02*
Y1621800D01*
X571400Y1625600D02*
Y1777900D01*
X6235700Y3136900D02*
Y3263900D01*
Y3124200D02*
Y3136900D01*
X6233298Y2377302D02*
Y2522210D01*
X406400Y3124200D02*
Y3263900D01*
Y3108812D02*
Y3124200D01*
X403998Y2357110D02*
Y2522210D01*
X6070600Y2387600D02*
Y2527300D01*
Y2374900D02*
Y2387600D01*
Y1638300D02*
Y1778000D01*
Y1625600D02*
Y1638300D01*
X571400Y1777900D02*
X571500Y1778000D01*
X6395700Y1625600D02*
X6400700Y1630600D01*
X1100000Y500000D02*
Y731700D01*
X1244600Y876300D01*
Y1625600D01*
X1078384Y1624484D02*
X1079500Y1625600D01*
Y1790700D01*
X1447200Y2907700D02*
X1562100Y3022600D01*
Y3716232D01*
X1466732Y3811600D02*
X1562100Y3716232D01*
X643322Y3811600D02*
X701900Y3753021D01*
X596884Y3811600D02*
X643322D01*
X701900Y3000600D02*
Y3753021D01*
X1422384Y3811600D02*
X1466732D01*
X6400784D02*
X6472622D01*
X6531200Y3023269D02*
Y3753021D01*
X6472622Y3811600D02*
X6531200Y3753021D01*
X5940200Y3750932D02*
X5999268Y3810000D01*
X6057900D01*
X5940200Y2251301D02*
Y3750932D01*
X5594232Y3811600D02*
X5667600Y3738232D01*
X5549884Y3811600D02*
X5594232D01*
X5076600Y3753021D02*
X5135178Y3811600D01*
X5076600Y2256168D02*
Y3753021D01*
X5135178Y3811600D02*
X5194284D01*
X4781432D02*
X4854800Y3738232D01*
X4737084Y3811600D02*
X4781432D01*
X4337168D02*
X4381484D01*
X4263800Y3738232D02*
X4337168Y3811600D01*
X4263800Y2256168D02*
Y3738232D01*
Y2256168D02*
X4361568Y2158400D01*
X4003900Y3010569D02*
Y3765721D01*
X3945322Y3824300D02*
X4003900Y3765721D01*
X3886184Y3824300D02*
X3945322D01*
X3412900Y3764121D02*
X3471478Y3822700D01*
X3518100D01*
X3412900Y2256168D02*
Y3764121D01*
X3901032Y2907700D02*
X4003900Y3010569D01*
X576500Y2907700D02*
X609000D01*
X701900Y3000600D01*
X571500Y2902700D02*
X576500Y2907700D01*
X1414700D02*
X1447200D01*
X1409700Y2902700D02*
X1414700Y2907700D01*
X1409700Y2870200D02*
Y2902700D01*
X2227500Y2907700D02*
X2260000D01*
X2362200Y3009900D01*
Y3754621D01*
X3073400Y2870200D02*
Y2902700D01*
X3078400Y2907700D01*
X3110900D01*
X3203800Y3000600D01*
Y3738232D01*
X5542200Y2907700D02*
X5564732D01*
X5667600Y3010569D01*
Y3738232D01*
X6020400Y2171100D02*
X6065600D01*
X5940200Y2251301D02*
X6020400Y2171100D01*
X6065600D02*
X6070600Y2166100D01*
Y2133600D02*
Y2166100D01*
X6400800Y2882900D02*
Y2915400D01*
X6405800Y2920400D01*
X6428332D01*
X6531200Y3023269D01*
X5537200Y2870200D02*
Y2902700D01*
X5542200Y2907700D01*
X5202000Y2158400D02*
X5207000Y2153400D01*
X5174368Y2158400D02*
X5202000D01*
X5076600Y2256168D02*
X5174368Y2158400D01*
X5207000Y2120900D02*
Y2153400D01*
X4724400Y2902700D02*
X4729400Y2907700D01*
X4724400Y2870200D02*
Y2902700D01*
X4729400Y2907700D02*
X4751932D01*
X4854800Y3010569D02*
Y3738232D01*
X4751932Y2907700D02*
X4854800Y3010569D01*
X4394200Y2120900D02*
Y2153400D01*
X4361568Y2158400D02*
X4389200D01*
X4394200Y2153400D01*
X3873500Y2902700D02*
X3878500Y2907700D01*
X3873500Y2870200D02*
Y2902700D01*
X3878500Y2907700D02*
X3901032D01*
X3538300Y2158400D02*
X3543300Y2153400D01*
Y2120900D02*
Y2153400D01*
X3412900Y2256168D02*
X3510668Y2158400D01*
X3538300D01*
X3086084Y3811600D02*
X3096084Y3801600D01*
X3140432D01*
X3203800Y3738232D01*
X2738200Y2158400D02*
X2743200Y2153400D01*
X2710568Y2158400D02*
X2738200D01*
X2743200Y2120900D02*
Y2153400D01*
X2612800Y2256168D02*
Y3738232D01*
X2676168Y3801600D01*
X2612800Y2256168D02*
X2710568Y2158400D01*
X2676168Y3801600D02*
X2720484D01*
X2730484Y3811600D01*
X2057400Y2870200D02*
X2222500D01*
X1892300D02*
X2057400D01*
X2908300D02*
X3073400D01*
X2743200D02*
X2908300D01*
X3708400D02*
X3873500D01*
X3543300D02*
X3708400D01*
X4559300D02*
X4724400D01*
X4394200D02*
X4559300D01*
X5372100D02*
X5537200D01*
X5207000D02*
X5372100D01*
X6235700Y2882900D02*
X6400800D01*
X6070600D02*
X6235700D01*
X5372100Y3124200D02*
Y3251200D01*
X5534798Y3126898D02*
Y3258810D01*
X6235700Y2133600D02*
X6400800D01*
X6070600D02*
X6235700D01*
X5372100Y2120900D02*
X5537200D01*
X5207000D02*
X5372100D01*
X4559300D02*
X4724400D01*
X4394200D02*
X4559300D01*
X3708400D02*
X3873500D01*
X3543300D02*
X3708400D01*
X2908300D02*
X3073400D01*
X2743200D02*
X2908300D01*
X2057400D02*
X2222500D01*
X1892300D02*
X2057400D01*
X1244600D02*
X1409700D01*
X1079500D02*
X1244600D01*
X5530850Y1930400D02*
X6324600D01*
X4737100D02*
X5530850D01*
X5537200Y1765300D02*
Y1924050D01*
X5530850Y1930400D02*
X5537200Y1924050D01*
X3886200Y1930400D02*
X4737100D01*
X4724400Y1765300D02*
Y1917700D01*
X4737100Y1930400D01*
X3086100D02*
X3886200D01*
X3873500Y1778000D02*
Y1917700D01*
X3886200Y1930400D01*
X2209800D02*
X3086100D01*
X3073400Y1778000D02*
Y1917700D01*
X3086100Y1930400D01*
X1409700D02*
X2209800D01*
X2222500Y1917700D01*
Y1778000D02*
Y1917700D01*
X723900Y1930400D02*
X1409700D01*
Y1790700D02*
Y1930400D01*
X571500Y1778000D02*
X723900Y1930400D01*
X6324600D02*
X6400800Y1854200D01*
Y1765300D02*
Y1854200D01*
X6070600Y3136900D02*
Y3263900D01*
Y3124200D02*
Y3136900D01*
X6235700Y1638300D02*
Y1778000D01*
Y1625600D02*
Y1638300D01*
X406400Y1625600D02*
Y1778000D01*
X191100Y2158400D02*
X236300D01*
X76200Y2273300D02*
Y3753021D01*
X241300Y2120900D02*
X406400D01*
X571500D01*
X76200Y2273300D02*
X191100Y2158400D01*
X236300D02*
X241300Y2153400D01*
X1074500Y2158400D02*
X1079500Y2153400D01*
X1007678Y2192155D02*
X1008245D01*
X1079500Y2120900D02*
Y2153400D01*
X949100Y2250734D02*
X1007678Y2192155D01*
X949100Y2250734D02*
Y3738232D01*
X1042000Y2158400D02*
X1074500D01*
X1008245Y2192155D02*
X1042000Y2158400D01*
X571500Y2870200D02*
Y2902700D01*
X406400Y2870200D02*
X571500D01*
X2235200Y3813200D02*
X2303621D01*
X2362200Y3754621D01*
X1892300Y2120900D02*
Y2153400D01*
X1887300Y2158400D02*
X1892300Y2153400D01*
X1859668Y2158400D02*
X1887300D01*
X1761900Y2256168D02*
X1859668Y2158400D01*
X1761900Y2256168D02*
Y3738232D01*
X1825268Y3801600D01*
X1869584D01*
X1879584Y3811600D01*
X2908300Y3619500D02*
X3073400D01*
X2743200D02*
X2908300D01*
X2908292Y3619508D02*
X2908300Y3619500D01*
X2908284Y3811600D02*
X2908292Y3811592D01*
Y3619508D02*
Y3811592D01*
X6235700Y3632200D02*
X6400800D01*
X6070600D02*
X6235700D01*
X6235692Y3632208D02*
Y3811592D01*
Y3632208D02*
X6235700Y3632200D01*
X6235684Y3811600D02*
X6235692Y3811592D01*
X5372100Y3619500D02*
X5537200D01*
X5207000D02*
X5372100D01*
X5372092Y3619508D02*
X5372100Y3619500D01*
X5372084Y3811600D02*
X5372092Y3811592D01*
Y3619508D02*
Y3811592D01*
X4559300Y3619500D02*
X4724400D01*
X4394200D02*
X4559300D01*
X4559284Y3811600D02*
X4559292Y3811592D01*
Y3619508D02*
Y3811592D01*
Y3619508D02*
X4559300Y3619500D01*
X3708400D02*
X3873500D01*
X3543300D02*
X3708400D01*
X3708392Y3619508D02*
X3708400Y3619500D01*
X3708384Y3824300D02*
X3708392Y3824292D01*
Y3619508D02*
Y3824292D01*
X2057400Y3619500D02*
X2222500D01*
X1892300D02*
X2057400D01*
X2057392Y3619508D02*
X2057400Y3619500D01*
X2057384Y3811600D02*
X2057392Y3811592D01*
Y3619508D02*
Y3811592D01*
X6400700Y1765200D02*
X6400800Y1765300D01*
X6233298Y2377302D02*
X6235700Y2374900D01*
X6398398Y2377302D02*
X6400800Y2374900D01*
X6398398Y3126602D02*
X6400800Y3124200D01*
X5532100D02*
X5534798Y3126898D01*
Y2377598D02*
Y2509510D01*
X5532100Y2374900D02*
X5534798Y2377598D01*
X5537100Y1765200D02*
X5537200Y1765300D01*
X5532100Y1625600D02*
X5537100Y1630600D01*
Y1765200D01*
X5372100Y1625600D02*
Y1765300D01*
X5207000Y1625600D02*
Y1765300D01*
X5369698Y2377302D02*
Y2509510D01*
Y2377302D02*
X5372100Y2374900D01*
X5207000D02*
Y2514600D01*
Y3124200D02*
Y3251200D01*
X4719300Y3124200D02*
X4721998Y3126898D01*
Y3258810D01*
X4559300Y3124200D02*
Y3251200D01*
X4394200Y3124200D02*
Y3251200D01*
X3871098Y3126898D02*
Y3271510D01*
X3868400Y3124200D02*
X3871098Y3126898D01*
X3708400Y3124200D02*
Y3263900D01*
X3705998Y2377302D02*
Y2522210D01*
Y2377302D02*
X3708400Y2374900D01*
X3868400D02*
X3871098Y2377598D01*
Y2522210D01*
X4394200Y2374900D02*
Y2514600D01*
X4556898Y2377302D02*
Y2509510D01*
Y2377302D02*
X4559300Y2374900D01*
X4719300D02*
X4721998Y2377598D01*
Y2509510D01*
X4724300Y1630600D02*
Y1765200D01*
X4724400Y1765300D01*
X4719300Y1625600D02*
X4724300Y1630600D01*
X4559300Y1625600D02*
Y1765300D01*
X4394200Y1625600D02*
Y1765300D01*
X3868400Y1625600D02*
X3873400Y1630600D01*
Y1777900D01*
X3873500Y1778000D01*
X3708400Y1625600D02*
Y1778000D01*
X3543300Y1625600D02*
Y1778000D01*
Y3124200D02*
Y3263900D01*
Y2374900D02*
Y2527300D01*
X2743200Y1625600D02*
Y1778000D01*
X2908300Y1625600D02*
Y1778000D01*
X3073300Y1630600D02*
Y1777900D01*
X3073400Y1778000D01*
X3068300Y1625600D02*
X3073300Y1630600D01*
X2743200Y2374900D02*
Y2527300D01*
X2905898Y2377302D02*
X2908300Y2374900D01*
X2905898Y2377302D02*
Y2522210D01*
X3068300Y2374900D02*
X3070998Y2377598D01*
Y2522210D01*
Y3126898D02*
Y3271510D01*
X3068300Y3124200D02*
X3070998Y3126898D01*
X2908300Y3124200D02*
Y3263900D01*
X2743200Y3124200D02*
Y3263900D01*
X1407298Y3126898D02*
Y3284210D01*
X1404600Y3124200D02*
X1407298Y3126898D01*
X1079500Y3124200D02*
Y3276600D01*
Y2374900D02*
Y2540000D01*
X2217400Y3124200D02*
X2220098Y3126898D01*
Y3271510D01*
Y2377598D02*
Y2522210D01*
X2217400Y2374900D02*
X2220098Y2377598D01*
X1892300Y1625600D02*
Y1778000D01*
X2222400Y1630600D02*
Y1777900D01*
X2217400Y1625600D02*
X2222400Y1630600D01*
Y1777900D02*
X2222500Y1778000D01*
X2057400Y1625600D02*
Y1778000D01*
X949100Y3738232D02*
X1012468Y3801600D01*
X1404600Y2374900D02*
X1407298Y2377598D01*
Y2534910D01*
X1409600Y1630600D02*
Y1790600D01*
X1409700Y1790700D01*
X1244600Y1625600D02*
Y1790700D01*
X1242198Y2377302D02*
Y2534910D01*
Y2377302D02*
X1244600Y2374900D01*
Y3124200D02*
Y3276600D01*
X2057400Y3124200D02*
Y3263900D01*
X2054998Y2377302D02*
X2057400Y2374900D01*
X2054998Y2377302D02*
Y2522210D01*
X1892300Y2374900D02*
Y2527300D01*
Y3124200D02*
Y3263900D01*
X241300Y2374900D02*
Y2527300D01*
Y1625600D02*
Y1778000D01*
Y3124200D02*
Y3263900D01*
Y2120900D02*
Y2153400D01*
X1244600Y2870200D02*
X1409700D01*
X1079500D02*
X1244600D01*
X1012468Y3801600D02*
X1056784D01*
X1066784Y3811600D01*
X1244600Y3619500D02*
X1409700D01*
X1079500D02*
X1244600D01*
X1244592Y3619508D02*
Y3811592D01*
Y3619508D02*
X1244600Y3619500D01*
X1244584Y3811600D02*
X1244592Y3811592D01*
X1244584Y4011600D02*
X1422384D01*
X1066784D02*
X1244584D01*
X596884D02*
X1066784D01*
X406384D02*
X596884D01*
X89700Y4012400D02*
X227784D01*
X88900Y4013200D02*
X89700Y4012400D01*
X227784D02*
X228584Y4011600D01*
X134779Y3811600D02*
X228583D01*
X76200Y3753021D02*
X134779Y3811600D01*
X228583D02*
X228584Y3811600D01*
X406400Y3619500D02*
Y3811584D01*
X241300Y2870200D02*
X406400D01*
Y3619500D02*
X571500D01*
X241300D02*
X406400D01*
X228584Y4011600D02*
X406384D01*
D12*
X6070600Y2133600D02*
D03*
X6235700D02*
D03*
X6400800D02*
D03*
X6395700Y1638300D02*
D03*
X6235700D02*
D03*
X6070600D02*
D03*
X241300Y3619500D02*
D03*
X406400D02*
D03*
X571500D02*
D03*
X566400Y3124200D02*
D03*
X406400D02*
D03*
X241300D02*
D03*
X6070600Y3632200D02*
D03*
X6235700D02*
D03*
X6400800D02*
D03*
X6395700Y3136900D02*
D03*
X6235700D02*
D03*
X6070600D02*
D03*
Y2882900D02*
D03*
X6235700D02*
D03*
X6400800D02*
D03*
X6395700Y2387600D02*
D03*
X6235700D02*
D03*
X6070600D02*
D03*
X5207000Y3619500D02*
D03*
X5372100D02*
D03*
X5537200D02*
D03*
X5532100Y3124200D02*
D03*
X5372100D02*
D03*
X5207000D02*
D03*
X4394200Y3619500D02*
D03*
X4559300D02*
D03*
X4724400D02*
D03*
X4719300Y3124200D02*
D03*
X4559300D02*
D03*
X4394200D02*
D03*
X5207000Y2870200D02*
D03*
X5372100D02*
D03*
X5537200D02*
D03*
X5532100Y2374900D02*
D03*
X5372100D02*
D03*
X5207000D02*
D03*
Y2120900D02*
D03*
X5372100D02*
D03*
X5537200D02*
D03*
X5532100Y1625600D02*
D03*
X5372100D02*
D03*
X5207000D02*
D03*
X4394200Y2870200D02*
D03*
X4559300D02*
D03*
X4724400D02*
D03*
X4719300Y2374900D02*
D03*
X4559300D02*
D03*
X4394200D02*
D03*
Y2120900D02*
D03*
X4559300D02*
D03*
X4724400D02*
D03*
X4719300Y1625600D02*
D03*
X4559300D02*
D03*
X4394200D02*
D03*
X3543300Y3619500D02*
D03*
X3708400D02*
D03*
X3873500D02*
D03*
X3868400Y3124200D02*
D03*
X3708400D02*
D03*
X3543300D02*
D03*
Y2870200D02*
D03*
X3708400D02*
D03*
X3873500D02*
D03*
X3868400Y2374900D02*
D03*
X3708400D02*
D03*
X3543300D02*
D03*
Y2120900D02*
D03*
X3708400D02*
D03*
X3873500D02*
D03*
X3868400Y1625600D02*
D03*
X3708400D02*
D03*
X3543300D02*
D03*
X2743200Y3619500D02*
D03*
X2908300D02*
D03*
X3073400D02*
D03*
X3068300Y3124200D02*
D03*
X2908300D02*
D03*
X2743200D02*
D03*
Y2870200D02*
D03*
X2908300D02*
D03*
X3073400D02*
D03*
X3068300Y2374900D02*
D03*
X2908300D02*
D03*
X2743200D02*
D03*
Y2120900D02*
D03*
X2908300D02*
D03*
X3073400D02*
D03*
X3068300Y1625600D02*
D03*
X2908300D02*
D03*
X2743200D02*
D03*
X1892300Y3619500D02*
D03*
X2057400D02*
D03*
X2222500D02*
D03*
X2217400Y3124200D02*
D03*
X2057400D02*
D03*
X1892300D02*
D03*
Y2870200D02*
D03*
X2057400D02*
D03*
X2222500D02*
D03*
X2217400Y2374900D02*
D03*
X2057400D02*
D03*
X1892300D02*
D03*
X241300Y2120900D02*
D03*
X406400D02*
D03*
X571500D02*
D03*
X566400Y1625600D02*
D03*
X406400D02*
D03*
X241300D02*
D03*
X1079500Y3619500D02*
D03*
X1244600D02*
D03*
X1409700D02*
D03*
X1404600Y3124200D02*
D03*
X1244600D02*
D03*
X1079500D02*
D03*
Y2870200D02*
D03*
X1244600D02*
D03*
X1409700D02*
D03*
X1404600Y2374900D02*
D03*
X1244600D02*
D03*
X1079500D02*
D03*
Y2120900D02*
D03*
X1244600D02*
D03*
X1409700D02*
D03*
X1404600Y1625600D02*
D03*
X1244600D02*
D03*
X1079500D02*
D03*
X1892300Y2120900D02*
D03*
X2057400D02*
D03*
X2222500D02*
D03*
X2217400Y1625600D02*
D03*
X2057400D02*
D03*
X1892300D02*
D03*
X241300Y2870200D02*
D03*
X406400D02*
D03*
X571500D02*
D03*
X566400Y2374900D02*
D03*
X406400D02*
D03*
X241300D02*
D03*
D13*
X571500Y1778000D02*
D03*
X5372100Y3251200D02*
D03*
X5534798Y3258810D02*
D03*
X569098Y3271510D02*
D03*
X1079500Y1790700D02*
D03*
X6235700Y1778000D02*
D03*
X6400800Y1765300D02*
D03*
X6398398Y2522210D02*
D03*
X6233298D02*
D03*
X6070600Y3263900D02*
D03*
X6235700D02*
D03*
X6398398Y3271510D02*
D03*
X6070600Y1778000D02*
D03*
Y2527300D02*
D03*
X5534798Y2509510D02*
D03*
X5369698D02*
D03*
X5207000Y3251200D02*
D03*
Y1765300D02*
D03*
X5372100D02*
D03*
X5537200D02*
D03*
X5207000Y2514600D02*
D03*
X4721998Y2509510D02*
D03*
X4556898D02*
D03*
X4394200Y3251200D02*
D03*
X4559300D02*
D03*
X4721998Y3258810D02*
D03*
X4394200Y1765300D02*
D03*
X4559300D02*
D03*
X4724400D02*
D03*
X4394200Y2514600D02*
D03*
X3871098Y2522210D02*
D03*
X3705998D02*
D03*
X3543300Y3263900D02*
D03*
X3708400D02*
D03*
X3871098Y3271510D02*
D03*
X3543300Y1778000D02*
D03*
X3708400D02*
D03*
X3873500D02*
D03*
X3543300Y2527300D02*
D03*
X3070998Y2522210D02*
D03*
X2905898D02*
D03*
X2743200Y3263900D02*
D03*
X2908300D02*
D03*
X3070998Y3271510D02*
D03*
X2743200Y1778000D02*
D03*
X2908300D02*
D03*
X3073400D02*
D03*
X2743200Y2527300D02*
D03*
X2220098Y2522210D02*
D03*
X2054998D02*
D03*
X1892300Y3263900D02*
D03*
X2057400D02*
D03*
X2220098Y3271510D02*
D03*
X1892300Y1778000D02*
D03*
X2057400D02*
D03*
X2222500D02*
D03*
X1892300Y2527300D02*
D03*
X1407298Y2534910D02*
D03*
X1242198D02*
D03*
X1079500Y3276600D02*
D03*
X1244600D02*
D03*
X1407298Y3284210D02*
D03*
X1244600Y1790700D02*
D03*
X1409700D02*
D03*
X1079500Y2540000D02*
D03*
X241300Y2527300D02*
D03*
X406400Y1778000D02*
D03*
X241300D02*
D03*
X406400Y3263900D02*
D03*
X241300D02*
D03*
X403998Y2522210D02*
D03*
X569098D02*
D03*
D14*
X1100000Y500000D02*
D03*
X1400000D02*
D03*
X200000D02*
D03*
X500000D02*
D03*
D15*
X88900Y4013200D02*
D03*
%TF.MD5,105dfa0423f160df36bf362f5e02fccf*%
M02*
