%TF.GenerationSoftware,Altium Limited,Altium Designer,24.3.1 (35)*%
G04 Layer_Color=8421504*
%FSLAX45Y45*%
%MOMM*%
%TF.SameCoordinates,A20972E9-028A-4597-9386-5314E3457622*%
%TF.FilePolarity,Positive*%
%TF.FileFunction,Paste,Top*%
%TF.Part,Single*%
G01*
G75*
%TA.AperFunction,SMDPad,CuDef*%
%ADD10R,1.25000X0.80000*%
D10*
X596884Y3811600D02*
D03*
Y4011600D02*
D03*
X406384Y3811600D02*
D03*
Y4011600D02*
D03*
X228584Y3811600D02*
D03*
Y4011600D02*
D03*
X2057384D02*
D03*
Y3811600D02*
D03*
X1244584Y4011600D02*
D03*
Y3811600D02*
D03*
X2235200Y4013200D02*
D03*
Y3813200D02*
D03*
X1422384Y4011600D02*
D03*
Y3811600D02*
D03*
X1066784Y4011600D02*
D03*
Y3811600D02*
D03*
X5194284Y4011600D02*
D03*
Y3811600D02*
D03*
X6235684Y4011600D02*
D03*
Y3811600D02*
D03*
X4559284Y4011600D02*
D03*
Y3811600D02*
D03*
X6400784Y4011600D02*
D03*
Y3811600D02*
D03*
X6057900Y4010000D02*
D03*
Y3810000D02*
D03*
X5372084Y4011600D02*
D03*
Y3811600D02*
D03*
X5549884Y4011600D02*
D03*
Y3811600D02*
D03*
X1879584Y4011600D02*
D03*
Y3811600D02*
D03*
X3886184Y4024300D02*
D03*
Y3824300D02*
D03*
X2908284Y4011600D02*
D03*
Y3811600D02*
D03*
X3086084Y4011600D02*
D03*
Y3811600D02*
D03*
X4737084Y4011600D02*
D03*
Y3811600D02*
D03*
X4381484Y4011600D02*
D03*
Y3811600D02*
D03*
X3708384Y4024300D02*
D03*
Y3824300D02*
D03*
X3530600Y4022700D02*
D03*
Y3822700D02*
D03*
X2730484Y4011600D02*
D03*
Y3811600D02*
D03*
%TF.MD5,89e7b7d1b075b1b6bb83e214a5da8995*%
M02*
