%TF.GenerationSoftware,Altium Limited,Altium Designer,24.3.1 (35)*%
G04 Layer_Color=8388736*
%FSLAX45Y45*%
%MOMM*%
%TF.SameCoordinates,A20972E9-028A-4597-9386-5314E3457622*%
%TF.FilePolarity,Negative*%
%TF.FileFunction,Soldermask,Top*%
%TF.Part,Single*%
G01*
G75*
%TA.AperFunction,SMDPad,CuDef*%
%ADD19R,1.28000X0.83000*%
%ADD20R,1.30320X1.95320*%
%TA.AperFunction,ViaPad*%
%ADD21C,1.20320*%
%ADD22C,2.20320*%
%ADD23C,1.47320*%
D19*
X596884Y3811600D02*
D03*
Y4011600D02*
D03*
X406384Y3811600D02*
D03*
Y4011600D02*
D03*
X228584Y3811600D02*
D03*
Y4011600D02*
D03*
X2057384D02*
D03*
Y3811600D02*
D03*
X1244584Y4011600D02*
D03*
Y3811600D02*
D03*
X2235200Y4013200D02*
D03*
Y3813200D02*
D03*
X1422384Y4011600D02*
D03*
Y3811600D02*
D03*
X1066784Y4011600D02*
D03*
Y3811600D02*
D03*
X5194284Y4011600D02*
D03*
Y3811600D02*
D03*
X6235684Y4011600D02*
D03*
Y3811600D02*
D03*
X4559284Y4011600D02*
D03*
Y3811600D02*
D03*
X6400784Y4011600D02*
D03*
Y3811600D02*
D03*
X6057900Y4010000D02*
D03*
Y3810000D02*
D03*
X5372084Y4011600D02*
D03*
Y3811600D02*
D03*
X5549884Y4011600D02*
D03*
Y3811600D02*
D03*
X1879584Y4011600D02*
D03*
Y3811600D02*
D03*
X3886184Y4024300D02*
D03*
Y3824300D02*
D03*
X2908284Y4011600D02*
D03*
Y3811600D02*
D03*
X3086084Y4011600D02*
D03*
Y3811600D02*
D03*
X4737084Y4011600D02*
D03*
Y3811600D02*
D03*
X4381484Y4011600D02*
D03*
Y3811600D02*
D03*
X3708384Y4024300D02*
D03*
Y3824300D02*
D03*
X3530600Y4022700D02*
D03*
Y3822700D02*
D03*
X2730484Y4011600D02*
D03*
Y3811600D02*
D03*
D20*
X6070600Y2133600D02*
D03*
X6235700D02*
D03*
X6400800D02*
D03*
X6395700Y1638300D02*
D03*
X6235700D02*
D03*
X6070600D02*
D03*
X241300Y3619500D02*
D03*
X406400D02*
D03*
X571500D02*
D03*
X566400Y3124200D02*
D03*
X406400D02*
D03*
X241300D02*
D03*
X6070600Y3632200D02*
D03*
X6235700D02*
D03*
X6400800D02*
D03*
X6395700Y3136900D02*
D03*
X6235700D02*
D03*
X6070600D02*
D03*
Y2882900D02*
D03*
X6235700D02*
D03*
X6400800D02*
D03*
X6395700Y2387600D02*
D03*
X6235700D02*
D03*
X6070600D02*
D03*
X5207000Y3619500D02*
D03*
X5372100D02*
D03*
X5537200D02*
D03*
X5532100Y3124200D02*
D03*
X5372100D02*
D03*
X5207000D02*
D03*
X4394200Y3619500D02*
D03*
X4559300D02*
D03*
X4724400D02*
D03*
X4719300Y3124200D02*
D03*
X4559300D02*
D03*
X4394200D02*
D03*
X5207000Y2870200D02*
D03*
X5372100D02*
D03*
X5537200D02*
D03*
X5532100Y2374900D02*
D03*
X5372100D02*
D03*
X5207000D02*
D03*
Y2120900D02*
D03*
X5372100D02*
D03*
X5537200D02*
D03*
X5532100Y1625600D02*
D03*
X5372100D02*
D03*
X5207000D02*
D03*
X4394200Y2870200D02*
D03*
X4559300D02*
D03*
X4724400D02*
D03*
X4719300Y2374900D02*
D03*
X4559300D02*
D03*
X4394200D02*
D03*
Y2120900D02*
D03*
X4559300D02*
D03*
X4724400D02*
D03*
X4719300Y1625600D02*
D03*
X4559300D02*
D03*
X4394200D02*
D03*
X3543300Y3619500D02*
D03*
X3708400D02*
D03*
X3873500D02*
D03*
X3868400Y3124200D02*
D03*
X3708400D02*
D03*
X3543300D02*
D03*
Y2870200D02*
D03*
X3708400D02*
D03*
X3873500D02*
D03*
X3868400Y2374900D02*
D03*
X3708400D02*
D03*
X3543300D02*
D03*
Y2120900D02*
D03*
X3708400D02*
D03*
X3873500D02*
D03*
X3868400Y1625600D02*
D03*
X3708400D02*
D03*
X3543300D02*
D03*
X2743200Y3619500D02*
D03*
X2908300D02*
D03*
X3073400D02*
D03*
X3068300Y3124200D02*
D03*
X2908300D02*
D03*
X2743200D02*
D03*
Y2870200D02*
D03*
X2908300D02*
D03*
X3073400D02*
D03*
X3068300Y2374900D02*
D03*
X2908300D02*
D03*
X2743200D02*
D03*
Y2120900D02*
D03*
X2908300D02*
D03*
X3073400D02*
D03*
X3068300Y1625600D02*
D03*
X2908300D02*
D03*
X2743200D02*
D03*
X1892300Y3619500D02*
D03*
X2057400D02*
D03*
X2222500D02*
D03*
X2217400Y3124200D02*
D03*
X2057400D02*
D03*
X1892300D02*
D03*
Y2870200D02*
D03*
X2057400D02*
D03*
X2222500D02*
D03*
X2217400Y2374900D02*
D03*
X2057400D02*
D03*
X1892300D02*
D03*
X241300Y2120900D02*
D03*
X406400D02*
D03*
X571500D02*
D03*
X566400Y1625600D02*
D03*
X406400D02*
D03*
X241300D02*
D03*
X1079500Y3619500D02*
D03*
X1244600D02*
D03*
X1409700D02*
D03*
X1404600Y3124200D02*
D03*
X1244600D02*
D03*
X1079500D02*
D03*
Y2870200D02*
D03*
X1244600D02*
D03*
X1409700D02*
D03*
X1404600Y2374900D02*
D03*
X1244600D02*
D03*
X1079500D02*
D03*
Y2120900D02*
D03*
X1244600D02*
D03*
X1409700D02*
D03*
X1404600Y1625600D02*
D03*
X1244600D02*
D03*
X1079500D02*
D03*
X1892300Y2120900D02*
D03*
X2057400D02*
D03*
X2222500D02*
D03*
X2217400Y1625600D02*
D03*
X2057400D02*
D03*
X1892300D02*
D03*
X241300Y2870200D02*
D03*
X406400D02*
D03*
X571500D02*
D03*
X566400Y2374900D02*
D03*
X406400D02*
D03*
X241300D02*
D03*
D21*
X571500Y1778000D02*
D03*
X5372100Y3251200D02*
D03*
X5534798Y3258810D02*
D03*
X569098Y3271510D02*
D03*
X1079500Y1790700D02*
D03*
X6235700Y1778000D02*
D03*
X6400800Y1765300D02*
D03*
X6398398Y2522210D02*
D03*
X6233298D02*
D03*
X6070600Y3263900D02*
D03*
X6235700D02*
D03*
X6398398Y3271510D02*
D03*
X6070600Y1778000D02*
D03*
Y2527300D02*
D03*
X5534798Y2509510D02*
D03*
X5369698D02*
D03*
X5207000Y3251200D02*
D03*
Y1765300D02*
D03*
X5372100D02*
D03*
X5537200D02*
D03*
X5207000Y2514600D02*
D03*
X4721998Y2509510D02*
D03*
X4556898D02*
D03*
X4394200Y3251200D02*
D03*
X4559300D02*
D03*
X4721998Y3258810D02*
D03*
X4394200Y1765300D02*
D03*
X4559300D02*
D03*
X4724400D02*
D03*
X4394200Y2514600D02*
D03*
X3871098Y2522210D02*
D03*
X3705998D02*
D03*
X3543300Y3263900D02*
D03*
X3708400D02*
D03*
X3871098Y3271510D02*
D03*
X3543300Y1778000D02*
D03*
X3708400D02*
D03*
X3873500D02*
D03*
X3543300Y2527300D02*
D03*
X3070998Y2522210D02*
D03*
X2905898D02*
D03*
X2743200Y3263900D02*
D03*
X2908300D02*
D03*
X3070998Y3271510D02*
D03*
X2743200Y1778000D02*
D03*
X2908300D02*
D03*
X3073400D02*
D03*
X2743200Y2527300D02*
D03*
X2220098Y2522210D02*
D03*
X2054998D02*
D03*
X1892300Y3263900D02*
D03*
X2057400D02*
D03*
X2220098Y3271510D02*
D03*
X1892300Y1778000D02*
D03*
X2057400D02*
D03*
X2222500D02*
D03*
X1892300Y2527300D02*
D03*
X1407298Y2534910D02*
D03*
X1242198D02*
D03*
X1079500Y3276600D02*
D03*
X1244600D02*
D03*
X1407298Y3284210D02*
D03*
X1244600Y1790700D02*
D03*
X1409700D02*
D03*
X1079500Y2540000D02*
D03*
X241300Y2527300D02*
D03*
X406400Y1778000D02*
D03*
X241300D02*
D03*
X406400Y3263900D02*
D03*
X241300D02*
D03*
X403998Y2522210D02*
D03*
X569098D02*
D03*
D22*
X1100000Y500000D02*
D03*
X1400000D02*
D03*
X200000D02*
D03*
X500000D02*
D03*
D23*
X88900Y4013200D02*
D03*
%TF.MD5,0d8bf585d7413d44a08fe97f0e22eb37*%
M02*
