%TF.GenerationSoftware,Altium Limited,Altium Designer,24.3.1 (35)*%
G04 Layer_Color=255*
%FSLAX45Y45*%
%MOMM*%
%TF.SameCoordinates,A20972E9-028A-4597-9386-5314E3457622*%
%TF.FilePolarity,Positive*%
%TF.FileFunction,Pads,Top*%
%TF.Part,Single*%
G01*
G75*
%TA.AperFunction,SMDPad,CuDef*%
%ADD10R,1.25000X0.80000*%
%ADD12R,1.10000X1.75000*%
D10*
X596884Y3811600D02*
D03*
Y4011600D02*
D03*
X406384Y3811600D02*
D03*
Y4011600D02*
D03*
X228584Y3811600D02*
D03*
Y4011600D02*
D03*
X2057384D02*
D03*
Y3811600D02*
D03*
X1244584Y4011600D02*
D03*
Y3811600D02*
D03*
X2235200Y4013200D02*
D03*
Y3813200D02*
D03*
X1422384Y4011600D02*
D03*
Y3811600D02*
D03*
X1066784Y4011600D02*
D03*
Y3811600D02*
D03*
X5194284Y4011600D02*
D03*
Y3811600D02*
D03*
X6235684Y4011600D02*
D03*
Y3811600D02*
D03*
X4559284Y4011600D02*
D03*
Y3811600D02*
D03*
X6400784Y4011600D02*
D03*
Y3811600D02*
D03*
X6057900Y4010000D02*
D03*
Y3810000D02*
D03*
X5372084Y4011600D02*
D03*
Y3811600D02*
D03*
X5549884Y4011600D02*
D03*
Y3811600D02*
D03*
X1879584Y4011600D02*
D03*
Y3811600D02*
D03*
X3886184Y4024300D02*
D03*
Y3824300D02*
D03*
X2908284Y4011600D02*
D03*
Y3811600D02*
D03*
X3086084Y4011600D02*
D03*
Y3811600D02*
D03*
X4737084Y4011600D02*
D03*
Y3811600D02*
D03*
X4381484Y4011600D02*
D03*
Y3811600D02*
D03*
X3708384Y4024300D02*
D03*
Y3824300D02*
D03*
X3530600Y4022700D02*
D03*
Y3822700D02*
D03*
X2730484Y4011600D02*
D03*
Y3811600D02*
D03*
D12*
X6070600Y2133600D02*
D03*
X6235700D02*
D03*
X6400800D02*
D03*
X6395700Y1638300D02*
D03*
X6235700D02*
D03*
X6070600D02*
D03*
X241300Y3619500D02*
D03*
X406400D02*
D03*
X571500D02*
D03*
X566400Y3124200D02*
D03*
X406400D02*
D03*
X241300D02*
D03*
X6070600Y3632200D02*
D03*
X6235700D02*
D03*
X6400800D02*
D03*
X6395700Y3136900D02*
D03*
X6235700D02*
D03*
X6070600D02*
D03*
Y2882900D02*
D03*
X6235700D02*
D03*
X6400800D02*
D03*
X6395700Y2387600D02*
D03*
X6235700D02*
D03*
X6070600D02*
D03*
X5207000Y3619500D02*
D03*
X5372100D02*
D03*
X5537200D02*
D03*
X5532100Y3124200D02*
D03*
X5372100D02*
D03*
X5207000D02*
D03*
X4394200Y3619500D02*
D03*
X4559300D02*
D03*
X4724400D02*
D03*
X4719300Y3124200D02*
D03*
X4559300D02*
D03*
X4394200D02*
D03*
X5207000Y2870200D02*
D03*
X5372100D02*
D03*
X5537200D02*
D03*
X5532100Y2374900D02*
D03*
X5372100D02*
D03*
X5207000D02*
D03*
Y2120900D02*
D03*
X5372100D02*
D03*
X5537200D02*
D03*
X5532100Y1625600D02*
D03*
X5372100D02*
D03*
X5207000D02*
D03*
X4394200Y2870200D02*
D03*
X4559300D02*
D03*
X4724400D02*
D03*
X4719300Y2374900D02*
D03*
X4559300D02*
D03*
X4394200D02*
D03*
Y2120900D02*
D03*
X4559300D02*
D03*
X4724400D02*
D03*
X4719300Y1625600D02*
D03*
X4559300D02*
D03*
X4394200D02*
D03*
X3543300Y3619500D02*
D03*
X3708400D02*
D03*
X3873500D02*
D03*
X3868400Y3124200D02*
D03*
X3708400D02*
D03*
X3543300D02*
D03*
Y2870200D02*
D03*
X3708400D02*
D03*
X3873500D02*
D03*
X3868400Y2374900D02*
D03*
X3708400D02*
D03*
X3543300D02*
D03*
Y2120900D02*
D03*
X3708400D02*
D03*
X3873500D02*
D03*
X3868400Y1625600D02*
D03*
X3708400D02*
D03*
X3543300D02*
D03*
X2743200Y3619500D02*
D03*
X2908300D02*
D03*
X3073400D02*
D03*
X3068300Y3124200D02*
D03*
X2908300D02*
D03*
X2743200D02*
D03*
Y2870200D02*
D03*
X2908300D02*
D03*
X3073400D02*
D03*
X3068300Y2374900D02*
D03*
X2908300D02*
D03*
X2743200D02*
D03*
Y2120900D02*
D03*
X2908300D02*
D03*
X3073400D02*
D03*
X3068300Y1625600D02*
D03*
X2908300D02*
D03*
X2743200D02*
D03*
X1892300Y3619500D02*
D03*
X2057400D02*
D03*
X2222500D02*
D03*
X2217400Y3124200D02*
D03*
X2057400D02*
D03*
X1892300D02*
D03*
Y2870200D02*
D03*
X2057400D02*
D03*
X2222500D02*
D03*
X2217400Y2374900D02*
D03*
X2057400D02*
D03*
X1892300D02*
D03*
X241300Y2120900D02*
D03*
X406400D02*
D03*
X571500D02*
D03*
X566400Y1625600D02*
D03*
X406400D02*
D03*
X241300D02*
D03*
X1079500Y3619500D02*
D03*
X1244600D02*
D03*
X1409700D02*
D03*
X1404600Y3124200D02*
D03*
X1244600D02*
D03*
X1079500D02*
D03*
Y2870200D02*
D03*
X1244600D02*
D03*
X1409700D02*
D03*
X1404600Y2374900D02*
D03*
X1244600D02*
D03*
X1079500D02*
D03*
Y2120900D02*
D03*
X1244600D02*
D03*
X1409700D02*
D03*
X1404600Y1625600D02*
D03*
X1244600D02*
D03*
X1079500D02*
D03*
X1892300Y2120900D02*
D03*
X2057400D02*
D03*
X2222500D02*
D03*
X2217400Y1625600D02*
D03*
X2057400D02*
D03*
X1892300D02*
D03*
X241300Y2870200D02*
D03*
X406400D02*
D03*
X571500D02*
D03*
X566400Y2374900D02*
D03*
X406400D02*
D03*
X241300D02*
D03*
%TF.MD5,d37f8b167fd512a7a7cf5fc2fa04e7aa*%
M02*
