%TF.GenerationSoftware,Altium Limited,Altium Designer,24.3.1 (35)*%
G04 Layer_Color=2752767*
%FSLAX45Y45*%
%MOMM*%
%TF.SameCoordinates,A20972E9-028A-4597-9386-5314E3457622*%
%TF.FilePolarity,Positive*%
%TF.FileFunction,Drawing*%
%TF.Part,Single*%
G01*
G75*
%TA.AperFunction,NonConductor*%
%ADD30C,0.16933*%
%ADD32C,0.12700*%
D30*
X622300Y1778000D02*
G03*
X622300Y1778000I-50800J0D01*
G01*
X5422900Y3251200D02*
G03*
X5422900Y3251200I-50800J0D01*
G01*
X5585598Y3258810D02*
G03*
X5585598Y3258810I-50800J0D01*
G01*
X619898Y3271510D02*
G03*
X619898Y3271510I-50800J0D01*
G01*
X1130300Y1790700D02*
G03*
X1130300Y1790700I-50800J0D01*
G01*
X6286500Y1778000D02*
G03*
X6286500Y1778000I-50800J0D01*
G01*
X6451600Y1765300D02*
G03*
X6451600Y1765300I-50800J0D01*
G01*
X6449198Y2522210D02*
G03*
X6449198Y2522210I-50800J0D01*
G01*
X6284098D02*
G03*
X6284098Y2522210I-50800J0D01*
G01*
X6121400Y3263900D02*
G03*
X6121400Y3263900I-50800J0D01*
G01*
X6286500D02*
G03*
X6286500Y3263900I-50800J0D01*
G01*
X6449198Y3271510D02*
G03*
X6449198Y3271510I-50800J0D01*
G01*
X6121400Y1778000D02*
G03*
X6121400Y1778000I-50800J0D01*
G01*
Y2527300D02*
G03*
X6121400Y2527300I-50800J0D01*
G01*
X5585598Y2509510D02*
G03*
X5585598Y2509510I-50800J0D01*
G01*
X5420498D02*
G03*
X5420498Y2509510I-50800J0D01*
G01*
X5257800Y3251200D02*
G03*
X5257800Y3251200I-50800J0D01*
G01*
Y1765300D02*
G03*
X5257800Y1765300I-50800J0D01*
G01*
X5422900D02*
G03*
X5422900Y1765300I-50800J0D01*
G01*
X5588000D02*
G03*
X5588000Y1765300I-50800J0D01*
G01*
X5257800Y2514600D02*
G03*
X5257800Y2514600I-50800J0D01*
G01*
X4772798Y2509510D02*
G03*
X4772798Y2509510I-50800J0D01*
G01*
X4607698D02*
G03*
X4607698Y2509510I-50800J0D01*
G01*
X4445000Y3251200D02*
G03*
X4445000Y3251200I-50800J0D01*
G01*
X4610100D02*
G03*
X4610100Y3251200I-50800J0D01*
G01*
X4772798Y3258810D02*
G03*
X4772798Y3258810I-50800J0D01*
G01*
X4445000Y1765300D02*
G03*
X4445000Y1765300I-50800J0D01*
G01*
X4610100D02*
G03*
X4610100Y1765300I-50800J0D01*
G01*
X4775200D02*
G03*
X4775200Y1765300I-50800J0D01*
G01*
X4445000Y2514600D02*
G03*
X4445000Y2514600I-50800J0D01*
G01*
X3921898Y2522210D02*
G03*
X3921898Y2522210I-50800J0D01*
G01*
X3756798D02*
G03*
X3756798Y2522210I-50800J0D01*
G01*
X3594100Y3263900D02*
G03*
X3594100Y3263900I-50800J0D01*
G01*
X3759200D02*
G03*
X3759200Y3263900I-50800J0D01*
G01*
X3921898Y3271510D02*
G03*
X3921898Y3271510I-50800J0D01*
G01*
X3594100Y1778000D02*
G03*
X3594100Y1778000I-50800J0D01*
G01*
X3759200D02*
G03*
X3759200Y1778000I-50800J0D01*
G01*
X3924300D02*
G03*
X3924300Y1778000I-50800J0D01*
G01*
X3594100Y2527300D02*
G03*
X3594100Y2527300I-50800J0D01*
G01*
X3121798Y2522210D02*
G03*
X3121798Y2522210I-50800J0D01*
G01*
X2956698D02*
G03*
X2956698Y2522210I-50800J0D01*
G01*
X2794000Y3263900D02*
G03*
X2794000Y3263900I-50800J0D01*
G01*
X2959100D02*
G03*
X2959100Y3263900I-50800J0D01*
G01*
X3121798Y3271510D02*
G03*
X3121798Y3271510I-50800J0D01*
G01*
X2794000Y1778000D02*
G03*
X2794000Y1778000I-50800J0D01*
G01*
X2959100D02*
G03*
X2959100Y1778000I-50800J0D01*
G01*
X3124200D02*
G03*
X3124200Y1778000I-50800J0D01*
G01*
X2794000Y2527300D02*
G03*
X2794000Y2527300I-50800J0D01*
G01*
X2270898Y2522210D02*
G03*
X2270898Y2522210I-50800J0D01*
G01*
X2105798D02*
G03*
X2105798Y2522210I-50800J0D01*
G01*
X1943100Y3263900D02*
G03*
X1943100Y3263900I-50800J0D01*
G01*
X2108200D02*
G03*
X2108200Y3263900I-50800J0D01*
G01*
X2270898Y3271510D02*
G03*
X2270898Y3271510I-50800J0D01*
G01*
X1943100Y1778000D02*
G03*
X1943100Y1778000I-50800J0D01*
G01*
X2108200D02*
G03*
X2108200Y1778000I-50800J0D01*
G01*
X2273300D02*
G03*
X2273300Y1778000I-50800J0D01*
G01*
X1943100Y2527300D02*
G03*
X1943100Y2527300I-50800J0D01*
G01*
X1458098Y2534910D02*
G03*
X1458098Y2534910I-50800J0D01*
G01*
X1292998D02*
G03*
X1292998Y2534910I-50800J0D01*
G01*
X1130300Y3276600D02*
G03*
X1130300Y3276600I-50800J0D01*
G01*
X1295400D02*
G03*
X1295400Y3276600I-50800J0D01*
G01*
X1458098Y3284210D02*
G03*
X1458098Y3284210I-50800J0D01*
G01*
X1295400Y1790700D02*
G03*
X1295400Y1790700I-50800J0D01*
G01*
X1460500D02*
G03*
X1460500Y1790700I-50800J0D01*
G01*
X1130300Y2540000D02*
G03*
X1130300Y2540000I-50800J0D01*
G01*
X292100Y2527300D02*
G03*
X292100Y2527300I-50800J0D01*
G01*
X457200Y1778000D02*
G03*
X457200Y1778000I-50800J0D01*
G01*
X292100D02*
G03*
X292100Y1778000I-50800J0D01*
G01*
X457200Y3263900D02*
G03*
X457200Y3263900I-50800J0D01*
G01*
X292100D02*
G03*
X292100Y3263900I-50800J0D01*
G01*
X454798Y2522210D02*
G03*
X454798Y2522210I-50800J0D01*
G01*
X619898D02*
G03*
X619898Y2522210I-50800J0D01*
G01*
D32*
X1100000Y449200D02*
X1049200Y550800D01*
X1150800D01*
X1100000Y449200D01*
X1400000D02*
X1349200Y550800D01*
X1450800D01*
X1400000Y449200D01*
X200000D02*
X149200Y550800D01*
X250800D01*
X200000Y449200D01*
X500000D02*
X449200Y550800D01*
X550800D01*
X500000Y449200D01*
X38100Y3962400D02*
Y4064000D01*
X139700D01*
Y3962400D01*
X38100D01*
%TF.MD5,db6c70132a6d4a2b2410a4b6be0db7f2*%
M02*
