%TF.GenerationSoftware,Altium Limited,Altium Designer,24.3.1 (35)*%
G04 Layer_Color=65535*
%FSLAX45Y45*%
%MOMM*%
%TF.SameCoordinates,A20972E9-028A-4597-9386-5314E3457622*%
%TF.FilePolarity,Positive*%
%TF.FileFunction,Legend,Top*%
%TF.Part,Single*%
G01*
G75*
%TA.AperFunction,NonConductor*%
%ADD16C,0.25400*%
%ADD17C,0.20000*%
%ADD18C,0.01270*%
D16*
X5981700Y1524000D02*
Y2243137D01*
X6489700Y1524000D02*
Y2243137D01*
X5981700Y1524000D02*
X6489700D01*
X5981700Y2243137D02*
X6489700D01*
X152400Y3009900D02*
Y3729037D01*
X660400Y3009900D02*
Y3729037D01*
X152400Y3009900D02*
X660400D01*
X152400Y3729037D02*
X660400D01*
X5981700Y3022600D02*
Y3741737D01*
X6489700Y3022600D02*
Y3741737D01*
X5981700Y3022600D02*
X6489700D01*
X5981700Y3741737D02*
X6489700D01*
X5981700Y2273300D02*
Y2992438D01*
X6489700Y2273300D02*
Y2992438D01*
X5981700Y2273300D02*
X6489700D01*
X5981700Y2992438D02*
X6489700D01*
X5118100Y3009900D02*
Y3729037D01*
X5626100Y3009900D02*
Y3729037D01*
X5118100Y3009900D02*
X5626100D01*
X5118100Y3729037D02*
X5626100D01*
X4305300Y3009900D02*
Y3729037D01*
X4813300Y3009900D02*
Y3729037D01*
X4305300Y3009900D02*
X4813300D01*
X4305300Y3729037D02*
X4813300D01*
X5118100Y2260600D02*
Y2979737D01*
X5626100Y2260600D02*
Y2979737D01*
X5118100Y2260600D02*
X5626100D01*
X5118100Y2979737D02*
X5626100D01*
X5118100Y1511300D02*
Y2230438D01*
X5626100Y1511300D02*
Y2230438D01*
X5118100Y1511300D02*
X5626100D01*
X5118100Y2230438D02*
X5626100D01*
X4305300Y2260600D02*
Y2979737D01*
X4813300Y2260600D02*
Y2979737D01*
X4305300Y2260600D02*
X4813300D01*
X4305300Y2979737D02*
X4813300D01*
X4305300Y1511300D02*
Y2230438D01*
X4813300Y1511300D02*
Y2230438D01*
X4305300Y1511300D02*
X4813300D01*
X4305300Y2230438D02*
X4813300D01*
X3454400Y3009900D02*
Y3729037D01*
X3962400Y3009900D02*
Y3729037D01*
X3454400Y3009900D02*
X3962400D01*
X3454400Y3729037D02*
X3962400D01*
X3454400Y2260600D02*
Y2979737D01*
X3962400Y2260600D02*
Y2979737D01*
X3454400Y2260600D02*
X3962400D01*
X3454400Y2979737D02*
X3962400D01*
X3454400Y1511300D02*
Y2230438D01*
X3962400Y1511300D02*
Y2230438D01*
X3454400Y1511300D02*
X3962400D01*
X3454400Y2230438D02*
X3962400D01*
X2654300Y3009900D02*
Y3729037D01*
X3162300Y3009900D02*
Y3729037D01*
X2654300Y3009900D02*
X3162300D01*
X2654300Y3729037D02*
X3162300D01*
X2654300Y2260600D02*
Y2979737D01*
X3162300Y2260600D02*
Y2979737D01*
X2654300Y2260600D02*
X3162300D01*
X2654300Y2979737D02*
X3162300D01*
X2654300Y1511300D02*
Y2230438D01*
X3162300Y1511300D02*
Y2230438D01*
X2654300Y1511300D02*
X3162300D01*
X2654300Y2230438D02*
X3162300D01*
X1803400Y3009900D02*
Y3729037D01*
X2311400Y3009900D02*
Y3729037D01*
X1803400Y3009900D02*
X2311400D01*
X1803400Y3729037D02*
X2311400D01*
X1803400Y2260600D02*
Y2979737D01*
X2311400Y2260600D02*
Y2979737D01*
X1803400Y2260600D02*
X2311400D01*
X1803400Y2979737D02*
X2311400D01*
X152400Y1511300D02*
Y2230438D01*
X660400Y1511300D02*
Y2230438D01*
X152400Y1511300D02*
X660400D01*
X152400Y2230438D02*
X660400D01*
X990600Y3009900D02*
Y3729037D01*
X1498600Y3009900D02*
Y3729037D01*
X990600Y3009900D02*
X1498600D01*
X990600Y3729037D02*
X1498600D01*
X990600Y2260600D02*
Y2979737D01*
X1498600Y2260600D02*
Y2979737D01*
X990600Y2260600D02*
X1498600D01*
X990600Y2979737D02*
X1498600D01*
X990600Y1511300D02*
Y2230438D01*
X1498600Y1511300D02*
Y2230438D01*
X990600Y1511300D02*
X1498600D01*
X990600Y2230438D02*
X1498600D01*
X1803400Y1511300D02*
Y2230438D01*
X2311400Y1511300D02*
Y2230438D01*
X1803400Y1511300D02*
X2311400D01*
X1803400Y2230438D02*
X2311400D01*
X152400Y2260600D02*
Y2979737D01*
X660400Y2260600D02*
Y2979737D01*
X152400Y2260600D02*
X660400D01*
X152400Y2979737D02*
X660400D01*
X1347832Y711200D02*
X1447800D01*
Y761184D01*
X1431139Y777845D01*
X1414477D01*
X1397816Y761184D01*
Y711200D01*
Y761184D01*
X1381155Y777845D01*
X1364494D01*
X1347832Y761184D01*
Y711200D01*
X1155700D02*
X1055732D01*
Y761184D01*
X1072394Y777845D01*
X1105716D01*
X1122377Y761184D01*
Y711200D01*
Y744523D02*
X1155700Y777845D01*
X462794D02*
X446132Y761184D01*
Y727861D01*
X462794Y711200D01*
X529439D01*
X546100Y727861D01*
Y761184D01*
X529439Y777845D01*
X496116D01*
Y744523D01*
X154032Y711200D02*
X220677D01*
X254000Y744523D01*
X220677Y777845D01*
X154032D01*
X170694Y877813D02*
X154032Y861152D01*
Y827829D01*
X170694Y811168D01*
X237339D01*
X254000Y827829D01*
Y861152D01*
X237339Y877813D01*
X170694Y977781D02*
X154032Y961119D01*
Y927797D01*
X170694Y911136D01*
X237339D01*
X254000Y927797D01*
Y961119D01*
X237339Y977781D01*
X3601768Y2681587D02*
Y2601613D01*
X3641755D01*
X3655084Y2614942D01*
Y2668258D01*
X3641755Y2681587D01*
X3601768D01*
X3735058Y2601613D02*
X3681742D01*
X3735058Y2654929D01*
Y2668258D01*
X3721729Y2681587D01*
X3695071D01*
X3681742Y2668258D01*
X3801703Y2601613D02*
Y2681587D01*
X3761716Y2641600D01*
X3815032D01*
X2801668Y2681587D02*
Y2601613D01*
X2841655D01*
X2854984Y2614942D01*
Y2668258D01*
X2841655Y2681587D01*
X2801668D01*
X2934958Y2601613D02*
X2881642D01*
X2934958Y2654929D01*
Y2668258D01*
X2921629Y2681587D01*
X2894971D01*
X2881642Y2668258D01*
X2961616D02*
X2974945Y2681587D01*
X3001603D01*
X3014932Y2668258D01*
Y2654929D01*
X3001603Y2641600D01*
X2988274D01*
X3001603D01*
X3014932Y2628271D01*
Y2614942D01*
X3001603Y2601613D01*
X2974945D01*
X2961616Y2614942D01*
X2788968Y3418187D02*
Y3338213D01*
X2828955D01*
X2842284Y3351542D01*
Y3404858D01*
X2828955Y3418187D01*
X2788968D01*
X2922258Y3338213D02*
X2868942D01*
X2922258Y3391529D01*
Y3404858D01*
X2908929Y3418187D01*
X2882271D01*
X2868942Y3404858D01*
X3002232Y3338213D02*
X2948916D01*
X3002232Y3391529D01*
Y3404858D01*
X2988903Y3418187D01*
X2962245D01*
X2948916Y3404858D01*
X4465997Y2681587D02*
Y2601613D01*
X4505984D01*
X4519313Y2614942D01*
Y2668258D01*
X4505984Y2681587D01*
X4465997D01*
X4599287Y2601613D02*
X4545971D01*
X4599287Y2654929D01*
Y2668258D01*
X4585958Y2681587D01*
X4559300D01*
X4545971Y2668258D01*
X4625945Y2601613D02*
X4652603D01*
X4639274D01*
Y2681587D01*
X4625945Y2668258D01*
X4452668Y1906887D02*
Y1826913D01*
X4492655D01*
X4505984Y1840242D01*
Y1893558D01*
X4492655Y1906887D01*
X4452668D01*
X4585958Y1826913D02*
X4532642D01*
X4585958Y1880229D01*
Y1893558D01*
X4572629Y1906887D01*
X4545971D01*
X4532642Y1893558D01*
X4612616D02*
X4625945Y1906887D01*
X4652603D01*
X4665932Y1893558D01*
Y1840242D01*
X4652603Y1826913D01*
X4625945D01*
X4612616Y1840242D01*
Y1893558D01*
X3621132Y3418187D02*
Y3338213D01*
X3661119D01*
X3674448Y3351542D01*
Y3404858D01*
X3661119Y3418187D01*
X3621132D01*
X3701106Y3338213D02*
X3727764D01*
X3714436D01*
Y3418187D01*
X3701106Y3404858D01*
X3767752Y3351542D02*
X3781081Y3338213D01*
X3807739D01*
X3821068Y3351542D01*
Y3404858D01*
X3807739Y3418187D01*
X3781081D01*
X3767752Y3404858D01*
Y3391529D01*
X3781081Y3378200D01*
X3821068D01*
X3621132Y1932287D02*
Y1852313D01*
X3661119D01*
X3674448Y1865642D01*
Y1918958D01*
X3661119Y1932287D01*
X3621132D01*
X3701106Y1852313D02*
X3727764D01*
X3714436D01*
Y1932287D01*
X3701106Y1918958D01*
X3767752D02*
X3781081Y1932287D01*
X3807739D01*
X3821068Y1918958D01*
Y1905629D01*
X3807739Y1892300D01*
X3821068Y1878971D01*
Y1865642D01*
X3807739Y1852313D01*
X3781081D01*
X3767752Y1865642D01*
Y1878971D01*
X3781081Y1892300D01*
X3767752Y1905629D01*
Y1918958D01*
X3781081Y1892300D02*
X3807739D01*
X2821032Y1919587D02*
Y1839613D01*
X2861019D01*
X2874348Y1852942D01*
Y1906258D01*
X2861019Y1919587D01*
X2821032D01*
X2901006Y1839613D02*
X2927664D01*
X2914336D01*
Y1919587D01*
X2901006Y1906258D01*
X2967652Y1919587D02*
X3020968D01*
Y1906258D01*
X2967652Y1852942D01*
Y1839613D01*
X5497468Y1839613D02*
Y1919587D01*
X5457481D01*
X5444152Y1906258D01*
Y1852942D01*
X5457481Y1839613D01*
X5497468D01*
X5417494Y1919587D02*
X5390836D01*
X5404164D01*
Y1839613D01*
X5417494Y1852942D01*
X5297532Y1839613D02*
X5324190Y1852942D01*
X5350848Y1879600D01*
Y1906258D01*
X5337519Y1919587D01*
X5310861D01*
X5297532Y1906258D01*
Y1892929D01*
X5310861Y1879600D01*
X5350848D01*
X4446632Y3418187D02*
Y3338213D01*
X4486619D01*
X4499948Y3351542D01*
Y3404858D01*
X4486619Y3418187D01*
X4446632D01*
X4526606Y3338213D02*
X4553264D01*
X4539936D01*
Y3418187D01*
X4526606Y3404858D01*
X4646568Y3418187D02*
X4593252D01*
Y3378200D01*
X4619910Y3391529D01*
X4633239D01*
X4646568Y3378200D01*
Y3351542D01*
X4633239Y3338213D01*
X4606581D01*
X4593252Y3351542D01*
X6335668Y3350913D02*
Y3430887D01*
X6295681D01*
X6282352Y3417558D01*
Y3364242D01*
X6295681Y3350913D01*
X6335668D01*
X6255694Y3430887D02*
X6229036D01*
X6242364D01*
Y3350913D01*
X6255694Y3364242D01*
X6149061Y3430887D02*
Y3350913D01*
X6189048Y3390900D01*
X6135732D01*
X6322968Y2588913D02*
Y2668887D01*
X6282981D01*
X6269652Y2655558D01*
Y2602242D01*
X6282981Y2588913D01*
X6322968D01*
X6242994Y2668887D02*
X6216336D01*
X6229664D01*
Y2588913D01*
X6242994Y2602242D01*
X6176348D02*
X6163019Y2588913D01*
X6136361D01*
X6123032Y2602242D01*
Y2615571D01*
X6136361Y2628900D01*
X6149690D01*
X6136361D01*
X6123032Y2642229D01*
Y2655558D01*
X6136361Y2668887D01*
X6163019D01*
X6176348Y2655558D01*
X6335668Y1865013D02*
Y1944987D01*
X6295681D01*
X6282352Y1931658D01*
Y1878342D01*
X6295681Y1865013D01*
X6335668D01*
X6255694Y1944987D02*
X6229036D01*
X6242364D01*
Y1865013D01*
X6255694Y1878342D01*
X6135732Y1944987D02*
X6189048D01*
X6135732Y1891671D01*
Y1878342D01*
X6149061Y1865013D01*
X6175719D01*
X6189048Y1878342D01*
X5446039Y3312813D02*
Y3392787D01*
X5406051D01*
X5392723Y3379458D01*
Y3326142D01*
X5406051Y3312813D01*
X5446039D01*
X5366064Y3392787D02*
X5339406D01*
X5352735D01*
Y3312813D01*
X5366064Y3326142D01*
X5299419Y3392787D02*
X5272761D01*
X5286090D01*
Y3312813D01*
X5299419Y3326142D01*
X5484768Y2550813D02*
Y2630787D01*
X5444781D01*
X5431452Y2617458D01*
Y2564142D01*
X5444781Y2550813D01*
X5484768D01*
X5404794Y2630787D02*
X5378136D01*
X5391464D01*
Y2550813D01*
X5404794Y2564142D01*
X5338148D02*
X5324819Y2550813D01*
X5298161D01*
X5284832Y2564142D01*
Y2617458D01*
X5298161Y2630787D01*
X5324819D01*
X5338148Y2617458D01*
Y2564142D01*
X2136745Y1852313D02*
Y1932287D01*
X2096758D01*
X2083429Y1918958D01*
Y1865642D01*
X2096758Y1852313D01*
X2136745D01*
X2056771Y1918958D02*
X2043442Y1932287D01*
X2016784D01*
X2003455Y1918958D01*
Y1865642D01*
X2016784Y1852313D01*
X2043442D01*
X2056771Y1865642D01*
Y1878971D01*
X2043442Y1892300D01*
X2003455D01*
X1990755Y3405487D02*
Y3325513D01*
X2030742D01*
X2044071Y3338842D01*
Y3392158D01*
X2030742Y3405487D01*
X1990755D01*
X2070729Y3392158D02*
X2084058Y3405487D01*
X2110716D01*
X2124045Y3392158D01*
Y3378829D01*
X2110716Y3365500D01*
X2124045Y3352171D01*
Y3338842D01*
X2110716Y3325513D01*
X2084058D01*
X2070729Y3338842D01*
Y3352171D01*
X2084058Y3365500D01*
X2070729Y3378829D01*
Y3392158D01*
X2084058Y3365500D02*
X2110716D01*
X1990755Y2656187D02*
Y2576213D01*
X2030742D01*
X2044071Y2589542D01*
Y2642858D01*
X2030742Y2656187D01*
X1990755D01*
X2070729D02*
X2124045D01*
Y2642858D01*
X2070729Y2589542D01*
Y2576213D01*
X1177955Y3418187D02*
Y3338213D01*
X1217942D01*
X1231271Y3351542D01*
Y3404858D01*
X1217942Y3418187D01*
X1177955D01*
X1311245D02*
X1284587Y3404858D01*
X1257929Y3378200D01*
Y3351542D01*
X1271258Y3338213D01*
X1297916D01*
X1311245Y3351542D01*
Y3364871D01*
X1297916Y3378200D01*
X1257929D01*
X1165255Y2681587D02*
Y2601613D01*
X1205242D01*
X1218571Y2614942D01*
Y2668258D01*
X1205242Y2681587D01*
X1165255D01*
X1298545D02*
X1245229D01*
Y2641600D01*
X1271887Y2654929D01*
X1285216D01*
X1298545Y2641600D01*
Y2614942D01*
X1285216Y2601613D01*
X1258558D01*
X1245229Y2614942D01*
X1190655Y1894187D02*
Y1814213D01*
X1230642D01*
X1243971Y1827542D01*
Y1880858D01*
X1230642Y1894187D01*
X1190655D01*
X1310616Y1814213D02*
Y1894187D01*
X1270629Y1854200D01*
X1323945D01*
X339755Y3405487D02*
Y3325513D01*
X379742D01*
X393071Y3338842D01*
Y3392158D01*
X379742Y3405487D01*
X339755D01*
X419729Y3392158D02*
X433058Y3405487D01*
X459716D01*
X473045Y3392158D01*
Y3378829D01*
X459716Y3365500D01*
X446387D01*
X459716D01*
X473045Y3352171D01*
Y3338842D01*
X459716Y3325513D01*
X433058D01*
X419729Y3338842D01*
X339755Y2656187D02*
Y2576213D01*
X379742D01*
X393071Y2589542D01*
Y2642858D01*
X379742Y2656187D01*
X339755D01*
X473045Y2576213D02*
X419729D01*
X473045Y2629529D01*
Y2642858D01*
X459716Y2656187D01*
X433058D01*
X419729Y2642858D01*
X353084Y1906887D02*
Y1826913D01*
X393071D01*
X406400Y1840242D01*
Y1893558D01*
X393071Y1906887D01*
X353084D01*
X433058Y1826913D02*
X459716D01*
X446387D01*
Y1906887D01*
X433058Y1893558D01*
D17*
X520700Y3759200D02*
Y4064000D01*
Y3759200D02*
X673100D01*
X520700Y4064000D02*
X673100D01*
Y3759200D02*
Y4064000D01*
X330200Y3759200D02*
Y4064000D01*
Y3759200D02*
X482600D01*
X330200Y4064000D02*
X482600D01*
Y3759200D02*
Y4064000D01*
X152400Y3759200D02*
Y4064000D01*
Y3759200D02*
X304800D01*
X152400Y4064000D02*
X304800D01*
Y3759200D02*
Y4064000D01*
X2133600Y3759200D02*
Y4064000D01*
X1981200D02*
X2133600D01*
X1981200Y3759200D02*
X2133600D01*
X1981200D02*
Y4064000D01*
X1320800Y3759200D02*
Y4064000D01*
X1168400D02*
X1320800D01*
X1168400Y3759200D02*
X1320800D01*
X1168400D02*
Y4064000D01*
X2311416Y3760800D02*
Y4065600D01*
X2159016D02*
X2311416D01*
X2159016Y3760800D02*
X2311416D01*
X2159016D02*
Y4065600D01*
X1498600Y3759200D02*
Y4064000D01*
X1346200D02*
X1498600D01*
X1346200Y3759200D02*
X1498600D01*
X1346200D02*
Y4064000D01*
X1143000Y3759200D02*
Y4064000D01*
X990600D02*
X1143000D01*
X990600Y3759200D02*
X1143000D01*
X990600D02*
Y4064000D01*
X5270500Y3759200D02*
Y4064000D01*
X5118100D02*
X5270500D01*
X5118100Y3759200D02*
X5270500D01*
X5118100D02*
Y4064000D01*
X6311900Y3759200D02*
Y4064000D01*
X6159500D02*
X6311900D01*
X6159500Y3759200D02*
X6311900D01*
X6159500D02*
Y4064000D01*
X4635500Y3759200D02*
Y4064000D01*
X4483100D02*
X4635500D01*
X4483100Y3759200D02*
X4635500D01*
X4483100D02*
Y4064000D01*
X6477000Y3759200D02*
Y4064000D01*
X6324600D02*
X6477000D01*
X6324600Y3759200D02*
X6477000D01*
X6324600D02*
Y4064000D01*
X6134116Y3757600D02*
Y4062400D01*
X5981716D02*
X6134116D01*
X5981716Y3757600D02*
X6134116D01*
X5981716D02*
Y4062400D01*
X5448300Y3759200D02*
Y4064000D01*
X5295900D02*
X5448300D01*
X5295900Y3759200D02*
X5448300D01*
X5295900D02*
Y4064000D01*
X5626100Y3759200D02*
Y4064000D01*
X5473700D02*
X5626100D01*
X5473700Y3759200D02*
X5626100D01*
X5473700D02*
Y4064000D01*
X1955800Y3759200D02*
Y4064000D01*
X1803400D02*
X1955800D01*
X1803400Y3759200D02*
X1955800D01*
X1803400D02*
Y4064000D01*
X3962400Y3771900D02*
Y4076700D01*
X3810000D02*
X3962400D01*
X3810000Y3771900D02*
X3962400D01*
X3810000D02*
Y4076700D01*
X2984500Y3759200D02*
Y4064000D01*
X2832100D02*
X2984500D01*
X2832100Y3759200D02*
X2984500D01*
X2832100D02*
Y4064000D01*
X3162300Y3759200D02*
Y4064000D01*
X3009900D02*
X3162300D01*
X3009900Y3759200D02*
X3162300D01*
X3009900D02*
Y4064000D01*
X4813300Y3759200D02*
Y4064000D01*
X4660900D02*
X4813300D01*
X4660900Y3759200D02*
X4813300D01*
X4660900D02*
Y4064000D01*
X4457700Y3759200D02*
Y4064000D01*
X4305300D02*
X4457700D01*
X4305300Y3759200D02*
X4457700D01*
X4305300D02*
Y4064000D01*
X3784600Y3771900D02*
Y4076700D01*
X3632200D02*
X3784600D01*
X3632200Y3771900D02*
X3784600D01*
X3632200D02*
Y4076700D01*
X3606816Y3770300D02*
Y4075100D01*
X3454416D02*
X3606816D01*
X3454416Y3770300D02*
X3606816D01*
X3454416D02*
Y4075100D01*
X2806700Y3759200D02*
Y4064000D01*
X2654300D02*
X2806700D01*
X2654300Y3759200D02*
X2806700D01*
X2654300D02*
Y4064000D01*
D18*
X832698Y1407701D02*
Y3207701D01*
Y1407701D02*
Y3207701D01*
X1659598D02*
X1659698D01*
X1659598Y1407701D02*
Y3207701D01*
Y1407701D02*
Y3207701D01*
X3313598Y1407701D02*
X3313698D01*
X2486598D02*
X2486698D01*
X1659598D02*
X1659698D01*
X6621648D02*
Y3207701D01*
X2486698D02*
X3313598D01*
X2486698Y1407701D02*
Y3207701D01*
Y1407701D02*
X3313598D01*
X1659698D02*
Y3207701D01*
Y1407701D02*
X2486598D01*
Y3207701D02*
X2486698D01*
X5648Y1407701D02*
Y3207701D01*
X832598D01*
X5648Y1407701D02*
Y3207701D01*
Y1407701D02*
X832598D01*
X5794598D02*
Y3207701D01*
X3313698D02*
X4140598D01*
X3313698Y1407701D02*
Y3207701D01*
Y1407701D02*
X4140598D01*
X5794598D02*
Y3207701D01*
X4967598Y1407701D02*
Y3207701D01*
X4967698Y1407701D02*
Y3207701D01*
X4967598Y1407701D02*
Y3207701D01*
X4140598Y1407701D02*
Y3207701D01*
X4140698Y1407701D02*
Y3207701D01*
X4140598Y1407701D02*
Y3207701D01*
X3313598Y1407701D02*
Y3207701D01*
X3313698Y1407701D02*
Y3207701D01*
X3313598Y1407701D02*
Y3207701D01*
X5794698D02*
X6621648D01*
X5794698Y1407701D02*
Y3207701D01*
Y1407701D02*
X6621648D01*
Y3207701D01*
X832698Y1407701D02*
X1659598D01*
X2486598D02*
Y3207701D01*
Y1407701D02*
Y3207701D01*
X1659698Y1407701D02*
Y3207701D01*
X5648Y1407701D02*
X6621648D01*
X832598D02*
Y3207701D01*
X832698Y1407701D02*
Y3207701D01*
X3313598D02*
X3313698D01*
X4140598D02*
X4140698D01*
X2486698Y1407701D02*
Y3207701D01*
X5794598Y1407701D02*
X5794698D01*
X4967598D02*
X4967698D01*
X4967598Y3207701D02*
X4967698D01*
X5794598D02*
X5794698D01*
X4967698D02*
X5794598D01*
X4967698Y1407701D02*
Y3207701D01*
Y1407701D02*
X5794598D01*
X4140598D02*
X4140698D01*
X5794698D02*
Y3207701D01*
X4140698D02*
X4967598D01*
X4140698Y1407701D02*
Y3207701D01*
Y1407701D02*
X4967598D01*
%TF.MD5,eac935751bb278ef31eb58c723d94799*%
M02*
