%TF.GenerationSoftware,Altium Limited,Altium Designer,24.3.1 (35)*%
G04 Layer_Color=32768*
%FSLAX45Y45*%
%MOMM*%
%TF.SameCoordinates,A20972E9-028A-4597-9386-5314E3457622*%
%TF.FilePolarity,Positive*%
%TF.FileFunction,Other,Top_Assembly*%
%TF.Part,Single*%
G01*
G75*
%TA.AperFunction,NonConductor*%
%ADD25C,0.10000*%
D25*
X520700Y3759200D02*
X673100D01*
X520700Y4064000D02*
X673100D01*
X520700Y3759200D02*
Y4064000D01*
X673100Y3759200D02*
Y4064000D01*
X330200Y3759200D02*
X482600D01*
X330200Y4064000D02*
X482600D01*
X330200Y3759200D02*
Y4064000D01*
X482600Y3759200D02*
Y4064000D01*
X152400Y3759200D02*
X304800D01*
X152400Y4064000D02*
X304800D01*
X152400Y3759200D02*
Y4064000D01*
X304800Y3759200D02*
Y4064000D01*
X2133600Y3759200D02*
Y4064000D01*
X1981200Y3759200D02*
Y4064000D01*
X2133600D01*
X1981200Y3759200D02*
X2133600D01*
X1320800D02*
Y4064000D01*
X1168400Y3759200D02*
Y4064000D01*
X1320800D01*
X1168400Y3759200D02*
X1320800D01*
X2311416Y3760800D02*
Y4065600D01*
X2159016Y3760800D02*
Y4065600D01*
X2311416D01*
X2159016Y3760800D02*
X2311416D01*
X1498600Y3759200D02*
Y4064000D01*
X1346200Y3759200D02*
Y4064000D01*
X1498600D01*
X1346200Y3759200D02*
X1498600D01*
X1143000D02*
Y4064000D01*
X990600Y3759200D02*
Y4064000D01*
X1143000D01*
X990600Y3759200D02*
X1143000D01*
X5270500D02*
Y4064000D01*
X5118100Y3759200D02*
Y4064000D01*
X5270500D01*
X5118100Y3759200D02*
X5270500D01*
X6311900D02*
Y4064000D01*
X6159500Y3759200D02*
Y4064000D01*
X6311900D01*
X6159500Y3759200D02*
X6311900D01*
X4635500D02*
Y4064000D01*
X4483100Y3759200D02*
Y4064000D01*
X4635500D01*
X4483100Y3759200D02*
X4635500D01*
X6477000D02*
Y4064000D01*
X6324600Y3759200D02*
Y4064000D01*
X6477000D01*
X6324600Y3759200D02*
X6477000D01*
X6134116Y3757600D02*
Y4062400D01*
X5981716Y3757600D02*
Y4062400D01*
X6134116D01*
X5981716Y3757600D02*
X6134116D01*
X5448300Y3759200D02*
Y4064000D01*
X5295900Y3759200D02*
Y4064000D01*
X5448300D01*
X5295900Y3759200D02*
X5448300D01*
X5626100D02*
Y4064000D01*
X5473700Y3759200D02*
Y4064000D01*
X5626100D01*
X5473700Y3759200D02*
X5626100D01*
X1955800D02*
Y4064000D01*
X1803400Y3759200D02*
Y4064000D01*
X1955800D01*
X1803400Y3759200D02*
X1955800D01*
X3962400Y3771900D02*
Y4076700D01*
X3810000Y3771900D02*
Y4076700D01*
X3962400D01*
X3810000Y3771900D02*
X3962400D01*
X2984500Y3759200D02*
Y4064000D01*
X2832100Y3759200D02*
Y4064000D01*
X2984500D01*
X2832100Y3759200D02*
X2984500D01*
X3162300D02*
Y4064000D01*
X3009900Y3759200D02*
Y4064000D01*
X3162300D01*
X3009900Y3759200D02*
X3162300D01*
X4813300D02*
Y4064000D01*
X4660900Y3759200D02*
Y4064000D01*
X4813300D01*
X4660900Y3759200D02*
X4813300D01*
X4457700D02*
Y4064000D01*
X4305300Y3759200D02*
Y4064000D01*
X4457700D01*
X4305300Y3759200D02*
X4457700D01*
X3784600Y3771900D02*
Y4076700D01*
X3632200Y3771900D02*
Y4076700D01*
X3784600D01*
X3632200Y3771900D02*
X3784600D01*
X3606816Y3770300D02*
Y4075100D01*
X3454416Y3770300D02*
Y4075100D01*
X3606816D01*
X3454416Y3770300D02*
X3606816D01*
X2806700Y3759200D02*
Y4064000D01*
X2654300Y3759200D02*
Y4064000D01*
X2806700D01*
X2654300Y3759200D02*
X2806700D01*
X631900Y3814100D02*
X561922D01*
Y3849089D01*
X573585Y3860752D01*
X596911D01*
X608574Y3849089D01*
Y3814100D01*
Y3837426D02*
X631900Y3860752D01*
X561922Y3930729D02*
Y3884078D01*
X596911D01*
X585248Y3907403D01*
Y3919066D01*
X596911Y3930729D01*
X620237D01*
X631900Y3919066D01*
Y3895740D01*
X620237Y3884078D01*
X441400Y3814100D02*
X371422D01*
Y3849089D01*
X383085Y3860752D01*
X406411D01*
X418074Y3849089D01*
Y3814100D01*
Y3837426D02*
X441400Y3860752D01*
X371422Y3930729D02*
X383085Y3907403D01*
X406411Y3884078D01*
X429737D01*
X441400Y3895740D01*
Y3919066D01*
X429737Y3930729D01*
X418074D01*
X406411Y3919066D01*
Y3884078D01*
X263600Y3814100D02*
X193622D01*
Y3849089D01*
X205285Y3860752D01*
X228611D01*
X240274Y3849089D01*
Y3814100D01*
Y3837426D02*
X263600Y3860752D01*
Y3919066D02*
X193622D01*
X228611Y3884078D01*
Y3930729D01*
X2092400Y3814100D02*
X2022422D01*
Y3849089D01*
X2034085Y3860752D01*
X2057411D01*
X2069074Y3849089D01*
Y3814100D01*
Y3837426D02*
X2092400Y3860752D01*
X2034085Y3884078D02*
X2022422Y3895740D01*
Y3919066D01*
X2034085Y3930729D01*
X2045748D01*
X2057411Y3919066D01*
Y3907403D01*
Y3919066D01*
X2069074Y3930729D01*
X2080737D01*
X2092400Y3919066D01*
Y3895740D01*
X2080737Y3884078D01*
X1279600Y3814100D02*
X1209622D01*
Y3849089D01*
X1221285Y3860752D01*
X1244611D01*
X1256274Y3849089D01*
Y3814100D01*
Y3837426D02*
X1279600Y3860752D01*
Y3884078D02*
Y3907403D01*
Y3895740D01*
X1209622D01*
X1221285Y3884078D01*
X2270216Y3815700D02*
X2200239D01*
Y3850689D01*
X2211902Y3862352D01*
X2235227D01*
X2246890Y3850689D01*
Y3815700D01*
Y3839026D02*
X2270216Y3862352D01*
Y3932329D02*
Y3885678D01*
X2223565Y3932329D01*
X2211902D01*
X2200239Y3920666D01*
Y3897340D01*
X2211902Y3885678D01*
X1457400Y3814100D02*
X1387422D01*
Y3849089D01*
X1399085Y3860752D01*
X1422411D01*
X1434074Y3849089D01*
Y3814100D01*
Y3837426D02*
X1457400Y3860752D01*
X1399085Y3884078D02*
X1387422Y3895740D01*
Y3919066D01*
X1399085Y3930729D01*
X1410748D01*
X1422411Y3919066D01*
X1434074Y3930729D01*
X1445737D01*
X1457400Y3919066D01*
Y3895740D01*
X1445737Y3884078D01*
X1434074D01*
X1422411Y3895740D01*
X1410748Y3884078D01*
X1399085D01*
X1422411Y3895740D02*
Y3919066D01*
X1101800Y3814100D02*
X1031822D01*
Y3849089D01*
X1043485Y3860752D01*
X1066811D01*
X1078474Y3849089D01*
Y3814100D01*
Y3837426D02*
X1101800Y3860752D01*
X1031822Y3884078D02*
Y3930729D01*
X1043485D01*
X1090137Y3884078D01*
X1101800D01*
X5229300Y3814100D02*
X5159322D01*
Y3849089D01*
X5170985Y3860752D01*
X5194311D01*
X5205974Y3849089D01*
Y3814100D01*
Y3837426D02*
X5229300Y3860752D01*
Y3884078D02*
Y3907403D01*
Y3895740D01*
X5159322D01*
X5170985Y3884078D01*
X5229300Y3942392D02*
Y3965718D01*
Y3954055D01*
X5159322D01*
X5170985Y3942392D01*
X6270700Y3814100D02*
X6200722D01*
Y3849089D01*
X6212385Y3860752D01*
X6235711D01*
X6247374Y3849089D01*
Y3814100D01*
Y3837426D02*
X6270700Y3860752D01*
X6259037Y3884078D02*
X6270700Y3895740D01*
Y3919066D01*
X6259037Y3930729D01*
X6212385D01*
X6200722Y3919066D01*
Y3895740D01*
X6212385Y3884078D01*
X6224048D01*
X6235711Y3895740D01*
Y3930729D01*
X4594300Y3814100D02*
X4524322D01*
Y3849089D01*
X4535985Y3860752D01*
X4559311D01*
X4570974Y3849089D01*
Y3814100D01*
Y3837426D02*
X4594300Y3860752D01*
Y3884078D02*
Y3907403D01*
Y3895740D01*
X4524322D01*
X4535985Y3884078D01*
Y3942392D02*
X4524322Y3954055D01*
Y3977381D01*
X4535985Y3989044D01*
X4582637D01*
X4594300Y3977381D01*
Y3954055D01*
X4582637Y3942392D01*
X4535985D01*
X6435800Y3814100D02*
X6365822D01*
Y3849089D01*
X6377485Y3860752D01*
X6400811D01*
X6412474Y3849089D01*
Y3814100D01*
Y3837426D02*
X6435800Y3860752D01*
Y3884078D02*
Y3907403D01*
Y3895740D01*
X6365822D01*
X6377485Y3884078D01*
X6365822Y3989044D02*
X6377485Y3965718D01*
X6400811Y3942392D01*
X6424137D01*
X6435800Y3954055D01*
Y3977381D01*
X6424137Y3989044D01*
X6412474D01*
X6400811Y3977381D01*
Y3942392D01*
X6092916Y3812500D02*
X6022939D01*
Y3847489D01*
X6034602Y3859152D01*
X6057927D01*
X6069590Y3847489D01*
Y3812500D01*
Y3835826D02*
X6092916Y3859152D01*
Y3882478D02*
Y3905803D01*
Y3894141D01*
X6022939D01*
X6034602Y3882478D01*
X6022939Y3987444D02*
Y3940792D01*
X6057927D01*
X6046265Y3964118D01*
Y3975781D01*
X6057927Y3987444D01*
X6081253D01*
X6092916Y3975781D01*
Y3952455D01*
X6081253Y3940792D01*
X5407100Y3814100D02*
X5337122D01*
Y3849089D01*
X5348785Y3860752D01*
X5372111D01*
X5383774Y3849089D01*
Y3814100D01*
Y3837426D02*
X5407100Y3860752D01*
Y3884078D02*
Y3907403D01*
Y3895740D01*
X5337122D01*
X5348785Y3884078D01*
X5407100Y3977381D02*
X5337122D01*
X5372111Y3942392D01*
Y3989044D01*
X5584900Y3814100D02*
X5514922D01*
Y3849089D01*
X5526585Y3860752D01*
X5549911D01*
X5561574Y3849089D01*
Y3814100D01*
Y3837426D02*
X5584900Y3860752D01*
Y3884078D02*
Y3907403D01*
Y3895740D01*
X5514922D01*
X5526585Y3884078D01*
Y3942392D02*
X5514922Y3954055D01*
Y3977381D01*
X5526585Y3989044D01*
X5538248D01*
X5549911Y3977381D01*
Y3965718D01*
Y3977381D01*
X5561574Y3989044D01*
X5573237D01*
X5584900Y3977381D01*
Y3954055D01*
X5573237Y3942392D01*
X1914600Y3814100D02*
X1844622D01*
Y3849089D01*
X1856285Y3860752D01*
X1879611D01*
X1891274Y3849089D01*
Y3814100D01*
Y3837426D02*
X1914600Y3860752D01*
Y3884078D02*
Y3907403D01*
Y3895740D01*
X1844622D01*
X1856285Y3884078D01*
X1914600Y3989044D02*
Y3942392D01*
X1867948Y3989044D01*
X1856285D01*
X1844622Y3977381D01*
Y3954055D01*
X1856285Y3942392D01*
X3921200Y3826800D02*
X3851222D01*
Y3861789D01*
X3862885Y3873452D01*
X3886211D01*
X3897874Y3861789D01*
Y3826800D01*
Y3850126D02*
X3921200Y3873452D01*
Y3896778D02*
Y3920103D01*
Y3908440D01*
X3851222D01*
X3862885Y3896778D01*
X3909537Y3955092D02*
X3921200Y3966755D01*
Y3990081D01*
X3909537Y4001744D01*
X3862885D01*
X3851222Y3990081D01*
Y3966755D01*
X3862885Y3955092D01*
X3874548D01*
X3886211Y3966755D01*
Y4001744D01*
X2943300Y3814100D02*
X2873322D01*
Y3849089D01*
X2884985Y3860752D01*
X2908311D01*
X2919974Y3849089D01*
Y3814100D01*
Y3837426D02*
X2943300Y3860752D01*
Y3884078D02*
Y3907403D01*
Y3895740D01*
X2873322D01*
X2884985Y3884078D01*
X2873322Y3942392D02*
Y3989044D01*
X2884985D01*
X2931637Y3942392D01*
X2943300D01*
X3121100Y3814100D02*
X3051122D01*
Y3849089D01*
X3062785Y3860752D01*
X3086111D01*
X3097774Y3849089D01*
Y3814100D01*
Y3837426D02*
X3121100Y3860752D01*
Y3884078D02*
Y3907403D01*
Y3895740D01*
X3051122D01*
X3062785Y3884078D01*
Y3942392D02*
X3051122Y3954055D01*
Y3977381D01*
X3062785Y3989044D01*
X3074448D01*
X3086111Y3977381D01*
X3097774Y3989044D01*
X3109437D01*
X3121100Y3977381D01*
Y3954055D01*
X3109437Y3942392D01*
X3097774D01*
X3086111Y3954055D01*
X3074448Y3942392D01*
X3062785D01*
X3086111Y3954055D02*
Y3977381D01*
X4772100Y3814100D02*
X4702122D01*
Y3849089D01*
X4713785Y3860752D01*
X4737111D01*
X4748774Y3849089D01*
Y3814100D01*
Y3837426D02*
X4772100Y3860752D01*
Y3930729D02*
Y3884078D01*
X4725448Y3930729D01*
X4713785D01*
X4702122Y3919066D01*
Y3895740D01*
X4713785Y3884078D01*
X4772100Y3989044D02*
X4702122D01*
X4737111Y3954055D01*
Y4000707D01*
X4416500Y3814100D02*
X4346522D01*
Y3849089D01*
X4358185Y3860752D01*
X4381511D01*
X4393174Y3849089D01*
Y3814100D01*
Y3837426D02*
X4416500Y3860752D01*
Y3930729D02*
Y3884078D01*
X4369848Y3930729D01*
X4358185D01*
X4346522Y3919066D01*
Y3895740D01*
X4358185Y3884078D01*
Y3954055D02*
X4346522Y3965718D01*
Y3989044D01*
X4358185Y4000707D01*
X4369848D01*
X4381511Y3989044D01*
Y3977381D01*
Y3989044D01*
X4393174Y4000707D01*
X4404837D01*
X4416500Y3989044D01*
Y3965718D01*
X4404837Y3954055D01*
X3743400Y3826800D02*
X3673422D01*
Y3861789D01*
X3685085Y3873452D01*
X3708411D01*
X3720074Y3861789D01*
Y3826800D01*
Y3850126D02*
X3743400Y3873452D01*
Y3943429D02*
Y3896778D01*
X3696748Y3943429D01*
X3685085D01*
X3673422Y3931766D01*
Y3908440D01*
X3685085Y3896778D01*
X3743400Y4013407D02*
Y3966755D01*
X3696748Y4013407D01*
X3685085D01*
X3673422Y4001744D01*
Y3978418D01*
X3685085Y3966755D01*
X3565616Y3825200D02*
X3495639D01*
Y3860189D01*
X3507302Y3871852D01*
X3530627D01*
X3542290Y3860189D01*
Y3825200D01*
Y3848526D02*
X3565616Y3871852D01*
Y3941829D02*
Y3895178D01*
X3518965Y3941829D01*
X3507302D01*
X3495639Y3930166D01*
Y3906841D01*
X3507302Y3895178D01*
X3565616Y3965155D02*
Y3988481D01*
Y3976818D01*
X3495639D01*
X3507302Y3965155D01*
X2765500Y3814100D02*
X2695522D01*
Y3849089D01*
X2707185Y3860752D01*
X2730511D01*
X2742174Y3849089D01*
Y3814100D01*
Y3837426D02*
X2765500Y3860752D01*
Y3930729D02*
Y3884078D01*
X2718848Y3930729D01*
X2707185D01*
X2695522Y3919066D01*
Y3895740D01*
X2707185Y3884078D01*
Y3954055D02*
X2695522Y3965718D01*
Y3989044D01*
X2707185Y4000707D01*
X2753837D01*
X2765500Y3989044D01*
Y3965718D01*
X2753837Y3954055D01*
X2707185D01*
%TF.MD5,e0cbb69450d1fd6cf9dbe6d157da7489*%
M02*
